<svg width="20" height="20" viewBox="0 0 20 20" fill="none" xmlns="http://www.w3.org/2000/svg">
<path d="M19.2771 9.89949C19.2771 10.5954 18.713 11.1595 18.0171 11.1595L11.1597 11.1597L11.1595 18.0171C11.1595 18.655 10.6855 19.1821 10.0705 19.2656L9.89954 19.2771C9.20366 19.2771 8.63954 18.713 8.63954 18.0171L8.63933 11.1597L1.78195 11.1595C1.08607 11.1595 0.52195 10.5954 0.52195 9.89949C0.52195 9.20362 1.08607 8.6395 1.78195 8.6395L8.63933 8.63928L8.63954 1.78191C8.63954 1.14402 9.11356 0.616844 9.72856 0.533411L9.89954 0.521908C10.5954 0.521908 11.1595 1.08603 11.1595 1.78191L11.1597 8.63928L18.0171 8.6395C18.713 8.6395 19.2771 9.20362 19.2771 9.89949Z" fill="#1D4988"/>
</svg>
