<svg width="24" height="12" viewBox="0 0 24 12" fill="none" xmlns="http://www.w3.org/2000/svg">
<path d="M4.37922 11.9986H16.9032C18.3562 11.9986 19.4973 11.8288 20.3175 10.9474C21.139 10.0643 21.289 8.85806 21.289 7.29178V4.70686C21.289 3.14057 21.139 1.93127 20.3175 1.05132C19.4959 0.169832 18.3562 9.15527e-05 16.9032 9.15527e-05H4.36612C2.93279 9.15527e-05 1.79167 0.169832 0.970093 1.05132C0.149944 1.93281 0 3.14761 0 4.68575V7.29178C0 8.85806 0.149944 10.0674 0.970093 10.9474C1.79311 11.8288 2.93279 11.9986 4.37922 11.9986ZM4.16221 10.3173C3.33408 10.3173 2.55944 10.1941 2.1112 9.72085C1.6695 9.24061 1.56427 8.41664 1.56427 7.52501V4.48615C1.56427 3.58046 1.67094 2.75955 2.1112 2.27778C2.558 1.79601 3.34063 1.68137 4.18185 1.68137H17.1268C17.9549 1.68137 18.7281 1.8046 19.1712 2.27778C19.6195 2.758 19.7247 3.57342 19.7247 4.46504V7.52501C19.7247 8.41664 19.618 9.23907 19.1712 9.72085C18.731 10.1956 17.9549 10.3173 17.1268 10.3173H4.16221ZM22.4496 8.32657C23.1105 8.28205 24 7.37057 24 5.99581C24 4.62655 23.1105 3.71656 22.4496 3.67211V8.32657Z" fill="#EAD51A"/>
<path d="M3.84965 9.24208H5.48483C5.98257 9.24208 6.27608 9.16248 6.48096 8.94074C6.68727 8.71893 6.76136 8.40507 6.76136 7.87006V4.12974C6.76136 3.59322 6.68727 3.27932 6.48096 3.05756C6.27608 2.83582 5.97603 2.75773 5.48483 2.75773H3.8693C3.35702 2.75773 3.05841 2.83582 2.85209 3.05756C2.65232 3.27932 2.57312 3.60026 2.57312 4.14382V7.87006C2.57312 8.40507 2.65232 8.71893 2.85209 8.94074C3.05841 9.16248 3.35702 9.24208 3.84965 9.24208Z" fill="#EAD51A"/>
<path d="M9.52653 9.24225H11.1617C11.6595 9.24225 11.953 9.16265 12.1578 8.94092C12.3641 8.71911 12.4382 8.40525 12.4382 7.87024V4.12992C12.4382 3.5934 12.3641 3.27949 12.1578 3.05774C11.953 2.836 11.6529 2.7579 11.1617 2.7579H9.54618C9.0339 2.7579 8.73529 2.836 8.52897 3.05774C8.3292 3.27949 8.25 3.60044 8.25 4.14399V7.87024C8.25 8.40525 8.3292 8.71911 8.52897 8.94092C8.73529 9.16265 9.0339 9.24225 9.52653 9.24225Z" fill="#EAD51A"/>
</svg>
