<svg width="24" height="24" viewBox="0 0 24 24" fill="none" xmlns="http://www.w3.org/2000/svg">
<path fill-rule="evenodd" clip-rule="evenodd" d="M2.55004 16.2548L4.18104 16.5045C5.38504 16.6888 6.24488 17.7668 6.15621 18.9813L6.03604 20.6275C6.00104 21.107 6.26238 21.5585 6.69521 21.7673L7.90154 22.3483C8.33438 22.5571 8.85121 22.479 9.20471 22.1535L10.4169 21.0335C11.3105 20.2075 12.6895 20.2075 13.5844 21.0335L14.7965 22.1535C15.15 22.4801 15.6657 22.5571 16.0997 22.3483L17.3084 21.7662C17.74 21.5585 18.0002 21.1081 17.9652 20.6298L17.845 18.9813C17.7564 17.7668 18.6162 16.6888 19.8202 16.5045L21.4512 16.2548C21.926 16.1825 22.3087 15.8266 22.416 15.3576L22.7135 14.0533C22.8209 13.5843 22.6307 13.0978 22.234 12.8271L20.8725 11.895C19.868 11.2066 19.5612 9.86265 20.1679 8.80682L20.9904 7.37648C21.2295 6.95998 21.1899 6.43848 20.89 6.06282L20.0559 5.01632C19.756 4.64065 19.2567 4.48548 18.797 4.62665L17.2197 5.10965C16.0542 5.46665 14.8117 4.86815 14.3637 3.73532L13.7594 2.20348C13.582 1.75548 13.1492 1.46148 12.6674 1.46265L11.3304 1.46615C10.8485 1.46732 10.4169 1.76365 10.2419 2.21282L9.65271 3.72715C9.20938 4.86698 7.96104 5.47015 6.79204 5.11082L5.14938 4.60682C4.68854 4.46448 4.18688 4.62082 3.88704 4.99882L3.05871 6.04648C2.75888 6.42565 2.72271 6.94832 2.96654 7.36482L3.80771 8.79865C4.42721 9.85565 4.12388 11.2125 3.11354 11.9043L1.76838 12.826C1.37171 13.0978 1.18154 13.5843 1.28888 14.0521L1.58638 15.3565C1.69254 15.8266 2.07521 16.1825 2.55004 16.2548V16.2548Z" stroke="#282A39" stroke-width="1.75" stroke-linecap="round" stroke-linejoin="round"/>
<path d="M14.2354 9.76474C15.4697 10.9991 15.4697 13.0011 14.2354 14.2354C13.0011 15.4697 10.9991 15.4697 9.76474 14.2354C8.53041 13.0011 8.53041 10.9991 9.76474 9.76474C10.9991 8.53041 13.0011 8.53041 14.2354 9.76474" stroke="#282A39" stroke-width="1.75" stroke-linecap="round" stroke-linejoin="round"/>
</svg>
