<svg width="24" height="24" viewBox="0 0 24 24" fill="none" xmlns="http://www.w3.org/2000/svg">
<path d="M11.9995 1.71451C9.96517 1.71461 7.97658 2.31794 6.28518 3.4482C4.59377 4.57847 3.27551 6.1849 2.49709 8.06438C1.71867 9.94385 1.51505 12.0119 1.91198 14.0071C2.30891 16.0023 3.28857 17.835 4.72707 19.2734C6.16557 20.7119 7.9983 21.6914 9.99351 22.0883C11.9887 22.4851 14.0568 22.2814 15.9362 21.5029C17.8157 20.7244 19.422 19.406 20.5522 17.7146C21.6824 16.0231 22.2856 14.0345 22.2856 12.0002C22.2905 10.648 22.0277 9.30832 21.5125 8.05818C20.9973 6.80804 20.2398 5.6722 19.2837 4.71612C18.3275 3.76003 17.1917 3.00259 15.9415 2.48743C14.6913 1.97227 13.3516 1.70959 11.9995 1.71451ZM11.9995 21.1528C10.1892 21.1528 8.41966 20.6161 6.91451 19.6103C5.40937 18.6046 4.23625 17.1752 3.5435 15.5028C2.85076 13.8303 2.66951 11.99 3.02267 10.2146C3.37582 8.43915 4.24753 6.8083 5.52755 5.52828C6.80757 4.24826 8.43842 3.37655 10.2139 3.02339C11.9893 2.67023 13.8296 2.85149 15.502 3.54423C17.1745 4.23697 18.6039 5.41009 19.6096 6.91524C20.6153 8.42039 21.1521 10.19 21.1521 12.0002C21.1521 14.4276 20.1878 16.7556 18.4714 18.4721C16.7549 20.1885 14.4269 21.1528 11.9995 21.1528Z" fill="#1D4988"/>
<path d="M11.9995 20.2806C10.3616 20.2807 8.76049 19.7951 7.39859 18.8852C6.03668 17.9753 4.97519 16.682 4.34834 15.1688C3.7215 13.6556 3.55747 11.9905 3.87698 10.384C4.19649 8.77761 4.98521 7.30201 6.14338 6.14384C7.30154 4.98567 8.77715 4.19696 10.3836 3.87744C11.99 3.55793 13.6551 3.72197 15.1683 4.34881C16.6815 4.97565 17.9749 6.03715 18.8848 7.39905C19.7947 8.76095 20.2803 10.3621 20.2802 12C20.2806 13.0876 20.0668 14.1645 19.6508 15.1694C19.2348 16.1743 18.6249 17.0873 17.8559 17.8563C17.0868 18.6253 16.1738 19.2353 15.1689 19.6513C14.1641 20.0672 13.0871 20.2811 11.9995 20.2806ZM11.9995 4.28511C10.4738 4.28511 8.98227 4.73755 7.71365 5.58522C6.44503 6.43289 5.45625 7.63771 4.87237 9.04733C4.28849 10.4569 4.13572 12.0081 4.43338 13.5045C4.73104 15.0009 5.46576 16.3755 6.54464 17.4544C7.62351 18.5333 8.99809 19.268 10.4945 19.5656C11.991 19.8633 13.5421 19.7105 14.9517 19.1267C16.3613 18.5428 17.5661 17.554 18.4138 16.2854C19.2615 15.0168 19.7139 13.5253 19.7139 11.9995C19.7101 9.95474 18.896 7.99485 17.4501 6.54904C16.0042 5.10322 14.0443 4.28933 11.9995 4.28561V4.28511Z" fill="#1D4988"/>
<path d="M11.9995 14.1354C11.5771 14.1354 11.1642 14.0101 10.8129 13.7754C10.4617 13.5407 10.188 13.2072 10.0263 12.8169C9.86466 12.4266 9.82237 11.9972 9.90478 11.5829C9.98719 11.1686 10.1906 10.788 10.4893 10.4893C10.788 10.1906 11.1686 9.98723 11.5829 9.90482C11.9972 9.82241 12.4266 9.86471 12.8169 10.0264C13.2071 10.188 13.5407 10.4618 13.7754 10.813C14.0101 11.1642 14.1353 11.5772 14.1353 11.9996C14.1344 12.5657 13.9091 13.1084 13.5087 13.5088C13.1084 13.9091 12.5657 14.1344 11.9995 14.1354ZM11.9995 10.3873C11.6892 10.3873 11.3858 10.4793 11.1278 10.6517C10.8698 10.8241 10.6687 11.0692 10.5499 11.3559C10.4312 11.6426 10.4001 11.9581 10.4606 12.2624C10.5212 12.5668 10.6706 12.8464 10.8901 13.0658C11.1095 13.2852 11.3891 13.4347 11.6934 13.4952C11.9978 13.5557 12.3133 13.5247 12.6 13.4059C12.8867 13.2872 13.1317 13.0861 13.3041 12.828C13.4765 12.57 13.5686 12.2666 13.5686 11.9563C13.5694 11.75 13.5294 11.5456 13.4509 11.3549C13.3723 11.1641 13.2568 10.9908 13.1109 10.8449C12.9651 10.6991 12.7917 10.5835 12.601 10.505C12.4102 10.4264 12.2058 10.3864 11.9995 10.3873Z" fill="#1D4988"/>
<path d="M12.2611 4.02408H11.6943V10.1257H12.2611V4.02408Z" fill="#1D4988"/>
<path d="M12.2611 13.9181H11.6943V20.0197H12.2611V13.9181Z" fill="#1D4988"/>
<path d="M10.0381 11.8258H3.93654V12.3926H10.0381V11.8258Z" fill="#1D4988"/>
<path d="M19.9316 11.8258H13.83V12.3926H19.9316V11.8258Z" fill="#1D4988"/>
<path d="M6.52352 6.09827L6.12276 6.49903L10.4372 10.8135L10.838 10.4128L6.52352 6.09827Z" fill="#1D4988"/>
<path d="M13.5172 13.1276L13.1164 13.5284L17.4004 17.8123L17.8011 17.4115L13.5172 13.1276Z" fill="#1D4988"/>
<path d="M10.4106 13.2626L6.12672 17.5465L6.52748 17.9472L10.8114 13.6633L10.4106 13.2626Z" fill="#1D4988"/>
<path d="M17.4399 6.20659L13.1254 10.5211L13.5261 10.9218L17.8406 6.60735L17.4399 6.20659Z" fill="#1D4988"/>
</svg>
